nColumns=19
nRows=65
DataType=double
version=3
OpenSimVersion=4.1
endheader
time	ground_force_calcn_r_vx	ground_force_calcn_r_vy	ground_force_calcn_r_vz	ground_force_calcn_r_px	ground_force_calcn_r_py	ground_force_calcn_r_pz	ground_force_calcn_r_mx	ground_force_calcn_r_my	ground_force_calcn_r_mz	ground_force_calcn_l_vx	ground_force_calcn_l_vy	ground_force_calcn_l_vz	ground_force_calcn_l_px	ground_force_calcn_l_py	ground_force_calcn_l_pz	ground_force_calcn_l_mx	ground_force_calcn_l_my	ground_force_calcn_l_mz
1.55	0	0	0	0	0	0	0	0	0	-81.5238	94.6159	20.1383	-0.0755148	0	-0.864415	0.156678	-0.181839	-0.0387031
1.56	-41.9619	50.1639	-6.477	-0.0921253	0	-0.32287	-0.0371614	0.0444251	-0.00573601	-409.507	537.65	112.672	-0.0923079	0	-0.866871	-0.274056	0.359814	0.0754042
1.57	-272.495	408.889	-68.8682	-0.146238	0	-0.326523	-0.269151	0.403872	-0.0680232	-420.152	705.639	113.512	-0.103152	0	-0.863884	-1.07754	1.80972	0.291119
1.58	-254.536	821.501	-127.914	-0.202116	0	-0.333034	0.167352	-0.540119	0.0841009	-90.6503	917.349	16.5754	-0.173476	0	-0.836549	0.123617	-1.25096	-0.0226034
1.59	147.38	1360.7	-91.277	-0.259783	0	-0.346748	-0.651581	-6.01579	0.403545	22.3149	1694.09	82.8614	-0.228084	0	-0.820073	-0.0625651	-4.74979	-0.232322
1.6	176.532	1340.1	-81.6164	-0.262219	0	-0.350127	-1.31817	-10.0066	0.609433	-3.71475	1705.67	112.541	-0.232449	0	-0.817933	0.0125928	-5.78212	-0.381508
1.61	-108.55	775.877	-89.805	-0.212682	0	-0.34457	0.820859	-5.86722	0.67911	-245.53	946.349	103.586	-0.18798	0	-0.82615	1.28934	-4.96952	-0.543956
1.62	-289.706	502.084	-86.4683	-0.147022	0	-0.343808	0.149337	-0.258813	0.0445725	-386.44	565.275	94.194	-0.12068	0	-0.839913	1.26431	-1.8494	-0.308172
1.63	-294.07	411.453	-64.7428	-0.131247	0	-0.348929	-0.0356906	0.0499371	-0.00785769	-365.402	458.311	72.6501	-0.100567	0	-0.845094	0.0315876	-0.0396193	-0.00628034
1.64	-241.811	350.874	-42.0258	-0.13353	0	-0.352066	0.759192	-1.10161	0.131944	-330.204	427.671	64.5519	-0.103257	0	-0.844954	-0.460305	0.596175	0.0899855
1.65	-230.865	343.848	-34.51	-0.134532	0	-0.353417	1.30056	-1.93704	0.194409	-291.871	441.156	61.1326	-0.116152	0	-0.84171	-0.49514	0.748394	0.103708
1.66	-238.884	382.682	-37.0045	-0.136068	0	-0.353405	1.74206	-2.7907	0.269855	-221.828	549.61	61.0824	-0.15143	0	-0.833762	-0.2285	0.566141	0.0629197
1.67	-231.111	443.109	-40.9421	-0.139961	0	-0.352521	2.21089	-4.23895	0.391668	-70.3087	837.633	72.2985	-0.201611	0	-0.823143	0.0702554	-0.836997	-0.0722437
1.68	-201.316	537.88	-43.6485	-0.1493	0	-0.351488	2.5142	-6.71746	0.545117	94.6881	1081.37	91.2328	-0.228182	0	-0.819038	-0.168879	-1.92866	-0.162716
1.69	-145.125	722.318	-52.5589	-0.170194	0	-0.352674	1.94238	-9.66762	0.703456	47.0983	968.357	97.5877	-0.222295	0	-0.821738	-0.0776429	-1.59636	-0.160876
1.7	-40.5691	1001.23	-75.0046	-0.195701	0	-0.355694	0.445875	-11.004	0.824339	-93.5221	735.016	92.589	-0.196789	0	-0.828564	-0.0601877	0.473032	0.0595872
1.71	55.1939	1160.32	-108.126	-0.208007	0	-0.355819	-0.427105	-8.97885	0.836708	-130.13	619.709	82.7333	-0.181435	0	-0.833525	-0.474221	2.25835	0.301497
1.72	6.46392	1040.64	-124.67	-0.199246	0	-0.352314	-0.0354869	-5.7131	0.68444	-99.0224	620.454	87.9313	-0.184094	0	-0.834331	-0.36349	2.27755	0.322777
1.73	-104.985	830.212	-105.963	-0.179706	0	-0.349354	0.653535	-5.16808	0.659621	-69.8584	680.042	104.509	-0.191569	0	-0.83364	-0.176738	1.72047	0.264402
1.74	-158.22	692.025	-75.7227	-0.166029	0	-0.348921	1.47445	-6.44898	0.70566	-44.8677	752.714	102.397	-0.199305	0	-0.830967	-0.151876	2.54791	0.346609
1.75	-166.901	651.741	-60.693	-0.16232	0	-0.349616	1.94065	-7.57814	0.70571	-19.6289	809.857	82.2816	-0.205732	0	-0.827277	-0.113509	4.68323	0.475816
1.76	-153.167	690.781	-63.4596	-0.165543	0	-0.350341	1.87045	-8.43569	0.774957	-10.8105	828.011	69.6792	-0.208168	0	-0.825313	-0.0836467	6.40679	0.539147
1.77	-114.228	789.757	-75.6497	-0.173597	0	-0.351464	1.33192	-9.2087	0.882089	-21.1195	801.34	71.5875	-0.206418	0	-0.825946	-0.183549	6.9644	0.622163
1.78	-59.404	916.904	-89.6169	-0.18327	0	-0.353178	0.621519	-9.59318	0.937625	-32.3196	758.839	80.42	-0.203267	0	-0.827939	-0.297237	6.97888	0.739606
1.79	-18.8097	1006.36	-98.0059	-0.189654	0	-0.354904	0.179018	-9.57783	0.932754	-32.3117	737.812	89.2918	-0.202122	0	-0.82944	-0.313614	7.16114	0.866658
1.8	-17.5437	1005.22	-95.5096	-0.189498	0	-0.355906	0.162979	-9.33843	0.887276	-22.4425	745.773	92.3685	-0.203467	0	-0.829375	-0.242047	8.0433	0.996211
1.81	-44.6466	942.054	-85.4157	-0.183829	0	-0.356082	0.430897	-9.09201	0.824369	-10.0223	764.332	86.3953	-0.205272	0	-0.828145	-0.126648	9.65858	1.09175
1.82	-70.1658	884.831	-74.6206	-0.177036	0	-0.355973	0.72772	-9.17697	0.773924	-3.30479	772.263	77.9954	-0.205209	0	-0.827058	-0.0489054	11.4282	1.1542
1.83	-76.6507	867.029	-67.3028	-0.172898	0	-0.356063	0.854553	-9.66623	0.750337	-6.51829	758.803	74.8255	-0.202594	0	-0.827301	-0.110551	12.8694	1.26905
1.84	-68.0376	883.688	-67.3798	-0.171634	0	-0.356134	0.782699	-10.1659	0.775131	-14.9815	730.979	75.4915	-0.19883	0	-0.828407	-0.286588	13.9832	1.44411
1.85	-53.4868	911.891	-75.3541	-0.171363	0	-0.355794	0.590039	-10.0595	0.831269	-19.0611	707.387	74.0442	-0.195896	0	-0.829046	-0.400121	14.8491	1.5543
1.86	-41.6699	930.834	-85.973	-0.170402	0	-0.355043	0.41576	-9.28736	0.857792	-16.5433	696.149	71.4373	-0.194407	0	-0.829022	-0.368143	15.4916	1.58972
1.87	-38.6716	926.834	-92.6422	-0.168093	0	-0.354195	0.353275	-8.46687	0.84631	-11.892	691.025	73.2697	-0.193348	0	-0.829316	-0.268511	15.6027	1.65437
1.88	-42.6156	899.36	-92.2329	-0.164936	0	-0.353562	0.382625	-8.07493	0.828116	-7.08108	685.478	80.9264	-0.192258	0	-0.830214	-0.155095	15.0138	1.7725
1.89	-49.0096	859.886	-87.1338	-0.161643	0	-0.353175	0.458024	-8.03615	0.814318	-1.65565	679.808	90.4636	-0.191194	0	-0.831227	-0.034041	13.9772	1.85998
1.9	-54.0986	819.49	-81.8067	-0.158765	0	-0.352817	0.531132	-8.04564	0.803166	4.79112	676.848	97.1316	-0.190913	0	-0.831824	0.0919171	12.9853	1.86346
1.91	-55.0311	785.107	-79.1052	-0.15678	0	-0.352481	0.551305	-7.86525	0.792481	11.0735	674.109	100.6	-0.191061	0	-0.831843	0.199073	12.1188	1.80853
1.92	-52.2443	758.934	-79.2151	-0.155743	0	-0.352094	0.512571	-7.44594	0.777183	15.5766	667.61	103.846	-0.191063	0	-0.831847	0.259644	11.1283	1.73101
1.93	-47.7309	738.711	-80.1407	-0.155354	0	-0.351696	0.445835	-6.90001	0.748562	18.3925	656.799	108.355	-0.190843	0	-0.832192	0.276277	9.86587	1.62762
1.94	-42.7488	720.215	-80.3248	-0.155264	0	-0.351356	0.379264	-6.38969	0.712636	20.7873	644.744	112.849	-0.190653	0	-0.832442	0.271109	8.40881	1.47179
1.95	-38.4019	700.487	-79.7059	-0.155228	0	-0.351159	0.323892	-5.90811	0.672262	23.5769	634.428	115.504	-0.190599	0	-0.832079	0.256697	6.90744	1.25757
1.96	-34.9289	679.537	-78.3371	-0.155272	0	-0.351136	0.277054	-5.39004	0.621364	26.7804	627.214	116.687	-0.190774	0	-0.831078	0.231746	5.42763	1.00975
1.97	-32.6273	660.457	-76.6142	-0.155416	0	-0.351015	0.23869	-4.83168	0.560484	29.9039	622.988	117.396	-0.191276	0	-0.829612	0.198471	4.13476	0.779158
1.98	-30.8844	644.555	-75.1938	-0.155685	0	-0.350529	0.203267	-4.24216	0.494891	33.1221	620.465	117.333	-0.192285	0	-0.827754	0.171635	3.21518	0.608009
1.99	-28.841	631.61	-75.6198	-0.15607	0	-0.34965	0.160763	-3.52067	0.421514	34.8023	619.179	115.931	-0.193255	0	-0.825531	0.146057	2.59855	0.486537
2	-26.8198	623.246	-78.8338	-0.156495	0	-0.348242	0.114259	-2.65519	0.335852	33.8752	617.871	114.044	-0.19386	0	-0.823292	0.108014	1.97014	0.36364
2.01	-24.4689	620.668	-84.185	-0.15696	0	-0.346361	0.0678407	-1.72082	0.233406	30.9357	616.995	114.348	-0.194141	0	-0.821469	0.0543468	1.08392	0.200883
2.02	-22.2442	621.754	-90.4136	-0.157376	0	-0.344143	0.0287493	-0.80358	0.116854	26.7458	616.364	117.737	-0.194244	0	-0.819997	-0.00389553	-0.0897733	-0.0171484
2.03	-20.8792	623.476	-96.2051	-0.157628	0	-0.3417	-5.82248e-05	0.00173865	-0.000268282	21.6703	619.097	121.334	-0.194647	0	-0.818532	-0.0417917	-1.19394	-0.233994
2.04	-20.5404	627.531	-101.104	-0.15767	0	-0.339144	-0.0205793	0.628719	-0.101296	16.936	631.242	122.886	-0.195543	0	-0.81696	-0.0485083	-1.80801	-0.351971
2.05	-21.0519	636.28	-105.232	-0.157278	0	-0.336673	-0.036984	1.11782	-0.184872	12.1613	652.77	123.698	-0.19581	0	-0.815906	-0.0364061	-1.95413	-0.370301
2.06	-22.4976	648.598	-109.108	-0.156347	0	-0.334243	-0.0527999	1.5222	-0.256066	4.61204	675.303	124.926	-0.193387	0	-0.816289	-0.0134521	-1.96967	-0.364375
2.07	-24.5107	664.254	-112.565	-0.154968	0	-0.331672	-0.0687667	1.86362	-0.31581	-6.93959	693.165	127.141	-0.187017	0	-0.818606	0.021139	-2.11148	-0.38729
2.08	-26.9381	682.088	-115.143	-0.153175	0	-0.32919	-0.085001	2.15227	-0.363324	-20.7448	709.386	130.526	-0.177216	0	-0.822946	0.0674181	-2.30542	-0.424193
2.09	-28.694	699.486	-116.035	-0.151335	0	-0.326855	-0.0958393	2.33632	-0.387564	-34.5712	723.946	134.545	-0.165409	0	-0.828792	0.11127	-2.33008	-0.433043
2.1	-30.4587	712.2	-114.356	-0.149712	0	-0.32469	-0.102774	2.40311	-0.385859	-48.7624	735.063	137.26	-0.153506	0	-0.834997	0.133045	-2.00556	-0.374505
2.11	-34.421	717.039	-111.042	-0.148238	0	-0.322469	-0.116149	2.41955	-0.374696	-58.9458	743.965	139.985	-0.143451	0	-0.840416	0.154401	-1.94872	-0.366673
2.12	-40.055	714.136	-105.879	-0.146893	0	-0.320118	-0.136482	2.43332	-0.360769	-67.4092	748.365	142.099	-0.135153	0	-0.844939	0.210165	-2.33321	-0.443029
2.13	-46.4465	705.975	-98.6009	-0.145748	0	-0.317766	-0.158141	2.4037	-0.335716	-81.0473	737.769	139.377	-0.126479	0	-0.849137	0.287532	-2.61739	-0.49447
2.14	-52.3871	693.381	-91.1323	-0.144961	0	-0.315199	-0.180761	2.3925	-0.31445	-95.4707	708.171	129.473	-0.117306	0	-0.853184	0.30076	-2.23094	-0.407878
2.15	-57.0873	672.175	-84.4912	-0.144654	0	-0.312008	-0.19655	2.31427	-0.2909	-100.017	663.8	112.315	-0.110093	0	-0.856401	0.180038	-1.19488	-0.202175
2.16	-60.5096	634.858	-76.4119	-0.144554	0	-0.308273	-0.198978	2.08765	-0.251271	-91.3035	599.174	90.616	-0.105278	0	-0.859009	0.0032921	-0.0216042	-0.00326731
2.17	-60.4462	565.845	-62.8689	-0.143827	0	-0.304264	-0.177756	1.664	-0.184881	-71.7334	499.927	63.4431	-0.100472	0	-0.861982	-0.161282	1.12401	0.142643
2.18	-52.5998	450.922	-41.205	-0.140976	0	-0.300412	-0.112576	0.965082	-0.0881888	-39.5401	359.242	31.2582	-0.0934564	0	-0.865632	-0.204105	1.8544	0.161354
2.19	-34.5362	294.879	-15.0345	-0.134064	0	-0.297294	-0.0254224	0.217063	-0.011067	-1.28544	198.739	1.55639	-0.0833237	0	-0.868271	-0.0116333	1.7986	0.0140855
